<svg id="Group_76102" data-name="Group 76102" xmlns="http://www.w3.org/2000/svg" xmlns:xlink="http://www.w3.org/1999/xlink" width="25.182" height="25.182" viewBox="0 0 25.182 25.182">
  <defs>
    <clipPath id="clip-path">
      <rect id="Rectangle_32178" data-name="Rectangle 32178" width="25.182" height="25.182"/>
    </clipPath>
  </defs>
  <g id="Group_76101" data-name="Group 76101" clip-path="url(#clip-path)">
    <path id="Path_99484" data-name="Path 99484" d="M12.591,0A12.591,12.591,0,1,0,25.182,12.591,12.594,12.594,0,0,0,12.591,0M19.07,9.548l-7.4,7.424a1.336,1.336,0,0,1-.918.393,1.231,1.231,0,0,1-.918-.393L6.112,13.247a1.317,1.317,0,0,1,1.863-1.863l2.78,2.78,6.479-6.479a1.3,1.3,0,0,1,1.863,0,1.323,1.323,0,0,1-.026,1.863Z"/>
  </g>
</svg>
