<svg width="39" height="39" viewBox="0 0 39 39" fill="none" xmlns="http://www.w3.org/2000/svg">
<circle cx="19.5" cy="19.5" r="19" stroke="#ED3502"/>
<path d="M25.5 17V17C25.5 18.2391 25.1444 19.4521 24.4752 20.495L23.9811 21.265H23.99L19 29.0716L14.01 21.265H14.0184L13.5262 20.4956C12.8792 19.4842 12.5 18.2871 12.5 17C12.5 16.1464 12.6681 15.3012 12.9948 14.5126C13.3214 13.7239 13.8002 13.0074 14.4038 12.4038C15.0074 11.8002 15.7239 11.3214 16.5126 10.9948C17.3012 10.6681 18.1464 10.5 19 10.5C19.8536 10.5 20.6988 10.6681 21.4874 10.9948C22.2761 11.3214 22.9926 11.8002 23.5962 12.4038C24.1998 13.0074 24.6786 13.7239 25.0052 14.5126C25.3319 15.3012 25.5 16.1464 25.5 17ZM16.5251 19.4749C17.1815 20.1313 18.0717 20.5 19 20.5C19.9283 20.5 20.8185 20.1313 21.4749 19.4749C22.1313 18.8185 22.5 17.9283 22.5 17C22.5 16.0717 22.1313 15.1815 21.4749 14.5251C20.8185 13.8687 19.9283 13.5 19 13.5C18.0717 13.5 17.1815 13.8687 16.5251 14.5251C15.8687 15.1815 15.5 16.0717 15.5 17C15.5 17.9283 15.8687 18.8185 16.5251 19.4749Z" stroke="#ED3502"/>
</svg>
