<svg xmlns="http://www.w3.org/2000/svg" width="121.348" height="88.777" viewBox="0 0 121.348 88.777">
  <g id="noun-quote-1084362" transform="translate(-200.417 -170.47)">
    <path id="Path_1941" data-name="Path 1941" d="M225.833,259.241a24.186,24.186,0,0,1-18.154-7.579q-7.26-7.579-7.262-21.785h0a64.109,64.109,0,0,1,9.847-33.9,75.7,75.7,0,0,1,24.962-25.5l12.571,8.078a75.319,75.319,0,0,0-12.117,14.683,45.639,45.639,0,0,0-7.58,18.879,23.7,23.7,0,0,1,15.181,6.944,20.992,20.992,0,0,1,6.4,15.658,23.574,23.574,0,0,1-7.1,17.586,23.216,23.216,0,0,1-16.747,6.944Zm72,0a24.186,24.186,0,0,1-18.154-7.579q-7.306-7.579-7.306-21.785a64.1,64.1,0,0,1,9.849-33.9,75.691,75.691,0,0,1,24.961-25.5l12.617,8.078a75.318,75.318,0,0,0-12.117,14.683,45.635,45.635,0,0,0-7.579,18.879,23.7,23.7,0,0,1,15.18,6.944,20.992,20.992,0,0,1,6.468,15.658,23.574,23.574,0,0,1-7.1,17.586,23.213,23.213,0,0,1-16.815,6.944Z" fill="#f44360"/>
  </g>
</svg>
