<svg width="39" height="39" viewBox="0 0 39 39" fill="none" xmlns="http://www.w3.org/2000/svg">
<circle cx="19.5" cy="19.5" r="19" stroke="#ED3502"/>
<g clip-path="url(#clip0_22_25)">
<path d="M13 23C14.6569 23 16 21.6569 16 20C16 18.3431 14.6569 17 13 17C11.3431 17 10 18.3431 10 20C10 21.6569 11.3431 23 13 23Z" stroke="#ED3502" stroke-linecap="round" stroke-linejoin="round"/>
<path d="M23.5 29.75C25.1569 29.75 26.5 28.4069 26.5 26.75C26.5 25.0931 25.1569 23.75 23.5 23.75C21.8431 23.75 20.5 25.0931 20.5 26.75C20.5 28.4069 21.8431 29.75 23.5 29.75Z" stroke="#ED3502" stroke-linecap="round" stroke-linejoin="round"/>
<path d="M23.5 16.25C25.1569 16.25 26.5 14.9069 26.5 13.25C26.5 11.5931 25.1569 10.25 23.5 10.25C21.8431 10.25 20.5 11.5931 20.5 13.25C20.5 14.9069 21.8431 16.25 23.5 16.25Z" stroke="#ED3502" stroke-linecap="round" stroke-linejoin="round"/>
<path d="M20.9772 14.8719L15.5228 18.3781" stroke="#ED3502" stroke-linecap="round" stroke-linejoin="round"/>
<path d="M15.5228 21.6219L20.9772 25.1281" stroke="#ED3502" stroke-linecap="round" stroke-linejoin="round"/>
</g>
<defs>
<clipPath id="clip0_22_25">
<rect width="24" height="24" fill="white" transform="translate(7 8)"/>
</clipPath>
</defs>
</svg>
