<svg width="39" height="39" viewBox="0 0 39 39" fill="none" xmlns="http://www.w3.org/2000/svg">
<circle cx="19.5" cy="19.5" r="19" stroke="#ED3502"/>
<g clip-path="url(#clip0_22_13)">
<path d="M22.4116 21.6256C22.5154 21.5565 22.6349 21.5144 22.7591 21.5031C22.8834 21.4918 23.0085 21.5117 23.1231 21.5609L27.5444 23.5419C27.6934 23.6056 27.8177 23.7158 27.8989 23.8561C27.98 23.9963 28.0135 24.1591 27.9944 24.32C27.8487 25.4085 27.3127 26.407 26.486 27.1299C25.6593 27.8528 24.5982 28.2508 23.5 28.25C20.1185 28.25 16.8755 26.9067 14.4844 24.5156C12.0933 22.1245 10.75 18.8815 10.75 15.5C10.7492 14.4018 11.1472 13.3407 11.8701 12.514C12.593 11.6873 13.5915 11.1513 14.68 11.0056C14.8409 10.9865 15.0037 11.02 15.1439 11.1011C15.2842 11.1823 15.3944 11.3066 15.4581 11.4556L17.4391 15.8806C17.4877 15.9943 17.5076 16.1182 17.4968 16.2414C17.486 16.3645 17.4449 16.4831 17.3772 16.5866L15.3738 18.9688C15.3027 19.076 15.2607 19.1998 15.2518 19.3282C15.2429 19.4565 15.2675 19.5849 15.3231 19.7009C16.0984 21.2881 17.7391 22.9091 19.3309 23.6769C19.4475 23.7323 19.5766 23.7563 19.7053 23.7466C19.834 23.7369 19.958 23.6938 20.065 23.6216L22.4116 21.6256Z" stroke="#ED3502" stroke-linecap="round" stroke-linejoin="round"/>
</g>
<defs>
<clipPath id="clip0_22_13">
<rect width="24" height="24" fill="white" transform="translate(7 8)"/>
</clipPath>
</defs>
</svg>
